<svg width="355" height="347" viewBox="0 0 355 347" fill="none" xmlns="http://www.w3.org/2000/svg">
<g filter="url(#filter0_i_18_82)">
<path d="M268.628 60.3226C265.435 59.7452 264.352 59.9019 262.628 60.3226C261.065 61.2946 260.79 61.722 261.128 62.3226L262.628 63.3226C262.628 63.3226 264.614 63.6181 265.628 64.3226C266.655 65.0358 267.628 66.8226 267.628 66.8226C269.184 68.173 270.061 68.046 271.628 67.3226C271.628 67.3226 272.628 66.8226 273.128 66.3226C273.628 65.8226 272.628 63.8226 272.628 63.8226L270.628 61.3226C269.617 60.5167 269.274 60.4682 268.628 60.3226Z" fill="url(#paint0_linear_18_82)"/>
<path d="M172.5 317.946C172.704 315.868 174 314.946 172.5 312.946C171 310.946 153.362 302.723 137.5 299.446C123.466 298.246 115.822 296.633 102.5 292.446C85.2926 286.809 77.5464 279.997 65.5 264.446C53.1902 247.99 47.9299 237.152 42 214.446C37.3245 195.203 36.1129 183.806 37.5 161.946C38.9974 145.658 40.7383 136.562 46.5 120.446C52.6212 103.385 56.9573 94.1098 69 78.946C77.6895 66.9035 83.7588 60.2161 97.5 48.446C111.656 39.7997 120.138 36.1711 136.5 32.446L137.114 32.2753C148.167 29.204 154.551 27.43 174 26.446C180.774 27.8742 186.402 28.0816 198 27.946C200.414 28.1097 201.165 27.5535 201 24.946C200.886 22.5377 201.651 23.0194 203.5 24.946C211.03 30.9284 216.037 33.6127 225.5 37.946C225.502 38.8018 231.503 39.3588 233 37.946C234.497 36.5332 232.362 36.0802 233 35.446L236 37.946C243.106 43.6705 247.179 48.0015 254.5 56.446C259.486 58.8495 261.872 59.7953 261 56.446C261 56.446 254.5 48.446 257 48.446C259.5 48.446 283 61.446 281.5 63.446C280 65.446 277 63.446 277 63.446C274.085 62.6017 274.473 63.6533 277 66.446L295 89.946C303.592 101.708 307.861 108.955 315 122.446C316.485 125.507 316.27 126.855 315 128.946C315 128.946 310 140.446 311.5 142.946C313 145.446 320.332 161.629 323 174.946C322.528 180.939 317.5 189.446 316.5 190.946C315.5 192.446 314.76 203.701 313 209.446C310.426 215.11 309.004 217.253 306.5 219.446C306.5 219.446 301 225.446 300 224.946C299 224.446 300 219.446 300 218.446C300 217.446 295.5 221.446 294 223.446C292.5 225.446 294 229.446 294 230.946C294 232.446 285.5 234.446 285.5 234.446C281.924 237.063 280.114 238.665 277.5 241.946C273.311 246.133 271.344 248.614 269 253.446C266.073 260.016 265.214 263.092 264.5 267.946C264.18 272.61 263.768 274.748 262 276.446C255.341 282.466 250.746 284.72 242 290.446C239.844 289.15 238.163 289.004 235 288.946C234.787 286.526 234.434 285.584 233.5 284.446C229.052 284.05 227.771 284.654 228 287.446C228.634 289.417 228.326 290.51 227 292.446L223.5 293.446C222.309 294.112 222.471 294.43 223.5 294.946C226.806 294.827 228.064 295.032 228 296.446L225.5 300.446C217.683 304.215 213.035 305.613 204.5 307.446C203.932 307.715 203.813 307.931 204 308.446L206 310.446C208.045 311.722 207.732 312.642 206 314.446L191 317.946C186.87 319.853 186.927 321.061 191 323.446C199.801 322.309 204.756 321.554 213 323.446C217.655 324.274 219.643 325.274 221 328.946C215.41 330.954 211.657 331.332 204.5 331.446C202.8 331.948 202.766 332.379 204.5 333.446L221 338.946C225.189 337.013 230.488 335.916 243 333.946C247.364 333.682 250.443 332.72 255 331.446C258.456 329.799 260.201 328.7 263 326.446C269.195 320.793 273.137 316.948 282 307.446C285.757 303.033 288.018 300.578 294 296.446C295.043 295.049 296.007 294.858 298 294.946C299.763 294.771 299 298.446 300 299.446C301 300.446 306.5 295.446 307 293.446C307.5 291.446 307 284.946 308 282.446C309 279.946 313 274.946 313 274.946L320.5 265.446C324.432 261.221 326.694 258.964 331 255.446C335.149 251.375 343 247.446 343 246.946C343 246.446 343.198 233.743 344.5 228.946C346.111 218.979 347.081 213.428 350.5 204.446C352.525 198.552 353.246 195.27 354 189.446C354.777 186.778 350.913 146.468 350.5 144.946C350.087 143.424 340 146.446 340 146.446C338.57 148.542 337 150.446 336 148.946C335 147.446 333.479 137.185 333.5 129.446C332.015 128.009 332.293 126.256 332 123.946C331.753 121.987 332.127 121.865 334 123.946L338.5 130.446C340.783 132.993 341.259 132.854 341 130.446L336 115.446C334.919 113.223 334.604 111.924 332.5 109.446C330.144 105.59 327.923 103.531 324.5 99.946L316.5 90.946C310.984 86.7349 308.771 83.4627 305 77.446C303.247 75.302 302.392 73.8365 301 70.946C298.422 67.5113 298.318 64.3922 298 58.946L296 55.446L294 51.946C291.137 49.3542 289.084 48.0722 285 45.946C275.74 41.8332 272.016 38.8782 268 32.446C268 32.446 262 34.446 261 35.446C260 36.446 264.5 40.446 264.5 40.446C264.939 42.5282 264.629 42.9768 263 42.446L251.5 34.446C246.255 33.6603 242.002 33.4988 241.5 31.446V26.446C241.644 25.2646 242.256 24.91 244.5 24.946L256 29.446C257.536 29.5314 257.927 29.2473 257.5 27.946C255.667 26.3246 254.303 25.5329 251.5 24.446C229.402 15.3664 217.153 11.4143 195.5 5.94601L162.5 0.446008C154.904 -0.175218 150.886 -0.265518 145 0.946008L141.5 2.44601L117.5 5.44601C94.5392 18.0387 82.521 25.4245 62 38.946L45 51.946L35 62.446L25.5 83.946L5 158.446C3.83535 163.818 2.85311 166.38 0 169.446L6 188.946L7 222.446L8.5 227.946L18.5 252.946L30.5 276.446L50 302.446L57 309.946L78 325.446C89.9188 331.884 96.3212 335.22 109 338.946C122.162 344.128 125.481 344.075 132.5 345.946C138.553 346.667 141.947 346.702 148 345.946C151.296 344.605 153.236 343.675 157.5 340.446C162.344 336.227 164.452 333.686 167.5 328.946C169.63 325.363 170.791 323.223 172.5 317.946Z" fill="url(#paint1_linear_18_82)"/>
<path d="M176 39.946C175.423 40.727 175.45 41.165 176 41.946C177.145 42.8258 177.674 43.4093 178 44.946C179.34 45.2106 180.113 45.6175 181.5 46.446C182.601 46.1573 183.179 45.9015 184 44.946C184.773 44.2661 184.985 43.9394 185 43.446C185.162 42.8601 185.149 42.5318 185 41.946C184.799 40.3885 184.551 39.932 184 39.446C182.959 38.9492 182.215 38.7822 179.5 39.446C178.103 38.9814 177.334 39.0565 176 39.946Z" fill="url(#paint2_linear_18_82)"/>
</g>
<defs>
<filter id="filter0_i_18_82" x="0" y="0" width="354.103" height="350.5" filterUnits="userSpaceOnUse" color-interpolation-filters="sRGB">
<feFlood flood-opacity="0" result="BackgroundImageFix"/>
<feBlend mode="normal" in="SourceGraphic" in2="BackgroundImageFix" result="shape"/>
<feColorMatrix in="SourceAlpha" type="matrix" values="0 0 0 0 0 0 0 0 0 0 0 0 0 0 0 0 0 0 127 0" result="hardAlpha"/>
<feOffset dy="4"/>
<feGaussianBlur stdDeviation="2"/>
<feComposite in2="hardAlpha" operator="arithmetic" k2="-1" k3="1"/>
<feColorMatrix type="matrix" values="0 0 0 0 0 0 0 0 0 0 0 0 0 0 0 0 0 0 0.25 0"/>
<feBlend mode="normal" in2="shape" result="effect1_innerShadow_18_82"/>
</filter>
<linearGradient id="paint0_linear_18_82" x1="264.95" y1="62.3318" x2="269.702" y2="68.8121" gradientUnits="userSpaceOnUse">
<stop stop-color="#292FD8"/>
<stop offset="1" stop-color="#A51196"/>
</linearGradient>
<linearGradient id="paint1_linear_18_82" x1="114" y1="104.5" x2="331" y2="299.5" gradientUnits="userSpaceOnUse">
<stop stop-color="#292FD8"/>
<stop offset="1" stop-color="#A51196"/>
</linearGradient>
<linearGradient id="paint2_linear_18_82" x1="178.648" y1="41.2516" x2="183.299" y2="46.4968" gradientUnits="userSpaceOnUse">
<stop stop-color="#292FD8"/>
<stop offset="1" stop-color="#A51196"/>
</linearGradient>
</defs>
</svg>
